<?xml version="1.0" standalone="no"?>
<!DOCTYPE svg PUBLIC "-//W3C//DTD SVG 20010904//EN"
 "http://www.w3.org/TR/2001/REC-SVG-20010904/DTD/svg10.dtd">
<svg version="1.0" xmlns="http://www.w3.org/2000/svg"
 width="700.000000pt" height="700.000000pt" viewBox="0 0 700.000000 700.000000"
 preserveAspectRatio="xMidYMid meet">
<metadata>
Created by potrace 1.11, written by Peter Selinger 2001-2013
</metadata>
<g transform="translate(0.000000,700.000000) scale(0.100000,-0.100000)"
fill="#000000" stroke="none">
<path d="M3250 6994 c-145 -13 -319 -38 -449 -64 -1369 -276 -2455 -1362
-2731 -2731 -54 -269 -64 -376 -64 -699 0 -323 10 -430 64 -699 276 -1369
1362 -2455 2731 -2731 337 -68 187 -63 2292 -67 l1907 -4 0 1666 0 1665 -1132
-2 -1132 -3 -16 -65 c-40 -156 -125 -317 -236 -450 -178 -211 -432 -351 -708
-389 -45 -7 -253 -11 -496 -11 l-420 0 -2 178 -3 177 -453 3 c-503 2 -490 1
-519 70 -19 45 -8 94 29 129 l29 28 460 3 459 3 0 489 0 490 -416 0 -416 0
-34 34 c-28 28 -34 41 -34 78 0 24 7 54 16 66 36 51 43 52 479 52 l405 0 0
265 0 265 439 0 c350 0 456 -3 527 -15 345 -61 649 -288 808 -603 61 -121 95
-238 121 -414 l6 -38 1121 0 1120 0 -6 88 c-55 697 -322 1372 -763 1928 -111
140 -406 435 -548 548 -505 404 -1107 658 -1755 742 -119 15 -574 27 -680 18z"/>
</g>
</svg>
